<svg width="24" height="24" viewBox="0 0 24 24" fill="none" xmlns="http://www.w3.org/2000/svg">
<g clip-path="url(#clip0_2_316)">
<path d="M8.44746 18.5175C6.93583 18.5175 5.70621 19.7471 5.70621 21.2587C5.70621 22.7704 6.93588 24 8.44746 24C9.95909 24 11.1887 22.77 11.1887 21.2587C11.1887 19.7474 9.95909 18.5175 8.44746 18.5175ZM8.44746 22.322C7.86143 22.322 7.38452 21.8453 7.38452 21.259C7.38452 20.6727 7.86143 20.1961 8.44746 20.1961C9.03378 20.1961 9.5104 20.6727 9.5104 21.259C9.5104 21.8453 9.03378 22.322 8.44746 22.322Z" fill="#DD2B1C"/>
<path d="M18.4058 18.5175C16.8939 18.5175 15.6642 19.7472 15.6642 21.2587C15.6642 22.7704 16.8939 24 18.4058 24C19.9171 24 21.147 22.7703 21.147 21.2587C21.147 19.7472 19.9171 18.5175 18.4058 18.5175ZM18.4058 22.3217C17.8195 22.3217 17.3426 21.8448 17.3426 21.2587C17.3426 20.6727 17.8195 20.1961 18.4058 20.1961C18.9918 20.1961 19.4687 20.6724 19.4687 21.2587C19.4687 21.8451 18.9921 22.3217 18.4058 22.3217Z" fill="#DD2B1C"/>
<path d="M7.24468 17.6786H20.3076C20.7714 17.6786 21.1468 17.303 21.1468 16.8395C21.1468 16.376 20.7711 16.0003 20.3076 16.0003H7.95826L5.55572 1.26376C5.49811 0.910742 5.22342 0.633288 4.87125 0.572023L1.65445 0.0125685C1.19653 -0.0668848 0.763259 0.238881 0.683806 0.695351C0.604071 1.15215 0.910119 1.58654 1.36659 1.66599L3.99511 2.12307L6.41635 16.9743C6.48272 17.3807 6.83321 17.6786 7.24468 17.6786Z" fill="#DD2B1C"/>
<path d="M23.1675 5.43606C23.0095 5.21927 22.7578 5.09116 22.4895 5.09116H5.42648V6.76947H21.3384L19.6122 12.1401H6.6293V13.8184H20.224C20.5882 13.8184 20.9113 13.5829 21.0229 13.236L23.2887 6.18705C23.3706 5.93172 23.3255 5.65258 23.1675 5.43606Z" fill="#DD2B1C"/>
</g>
<defs>
<clipPath id="clip0_2_316">
<rect width="24" height="24" fill="white"/>
</clipPath>
</defs>
</svg>
