<svg width="12" height="12" viewBox="0 0 12 12" fill="none" xmlns="http://www.w3.org/2000/svg">
<g clip-path="url(#clip0_2_357)">
<path d="M6.70699 6.00013L11.8534 0.853729C12.0489 0.658232 12.0489 0.342241 11.8534 0.146744C11.6579 -0.0487521 11.3419 -0.0487521 11.1464 0.146744L6.00001 5.29315L0.853606 0.146744C0.65811 -0.0487521 0.342119 -0.0487521 0.146622 0.146744C-0.0488741 0.342241 -0.0488741 0.658232 0.146622 0.853729L5.29302 6.00013L0.146622 11.1465C-0.0488741 11.342 -0.0488741 11.658 0.146622 11.8535C0.244124 11.951 0.372119 12 0.500114 12C0.628109 12 0.756104 11.951 0.853606 11.8535L6.00001 6.70712L11.1464 11.8535C11.2439 11.951 11.3719 12 11.4999 12C11.6279 12 11.7559 11.951 11.8534 11.8535C12.0489 11.658 12.0489 11.342 11.8534 11.1465L6.70699 6.00013Z" fill="black" fill-opacity="0.15"/>
</g>
<defs>
<clipPath id="clip0_2_357">
<rect width="12" height="12" fill="white"/>
</clipPath>
</defs>
</svg>
