<svg width="24" height="24" viewBox="0 0 24 24" fill="none" xmlns="http://www.w3.org/2000/svg">
<g clip-path="url(#clip0_4009_827)">
<path d="M12.375 0C5.96499 0 0.75 5.38322 0.75 12C0.75 18.6168 5.96499 24 12.375 24C18.785 24 24 18.6168 24 12C24 5.38322 18.785 0 12.375 0ZM12.375 22.1003C6.97964 22.1003 2.59038 17.5691 2.59038 12C2.59038 6.43092 6.97964 1.89975 12.375 1.89975C17.77 1.89975 22.1596 6.43125 22.1596 12.0003C22.1596 17.5694 17.77 22.1003 12.375 22.1003Z" fill="white"/>
<path d="M12.375 14.1293C9.10557 14.1293 6.04656 15.8216 3.76202 18.8941L5.22205 20.0505C7.15044 17.4573 9.69077 16.0291 12.375 16.0291C15.0592 16.0291 17.5994 17.4573 19.5276 20.0505L20.9876 18.8941C18.703 15.8216 15.6444 14.1293 12.375 14.1293Z" fill="white"/>
<path d="M12.375 4.30609C9.73652 4.30609 7.59003 6.53608 7.59003 9.27704C7.59003 12.018 9.73652 14.248 12.375 14.248C15.0135 14.248 17.16 12.0181 17.16 9.27709C17.16 6.53612 15.0135 4.30609 12.375 4.30609ZM12.375 12.3483C10.7515 12.3483 9.43041 10.9707 9.43041 9.27704C9.43041 7.5834 10.7515 6.20579 12.375 6.20579C13.9985 6.20579 15.3196 7.58373 15.3196 9.27704C15.3196 10.9704 13.9985 12.3483 12.375 12.3483Z" fill="white"/>
</g>
<defs>
<clipPath id="clip0_4009_827">
<rect width="24" height="24" fill="white"/>
</clipPath>
</defs>
</svg>
