<svg width="121" height="30" viewBox="0 0 121 30" fill="none" xmlns="http://www.w3.org/2000/svg">
<g clip-path="url(#clip0_4015_846)">
<path d="M15.0214 29.9998C23.3175 29.9998 30.0429 23.2841 30.0429 14.9999C30.0429 6.71567 23.3176 0 15.0214 0C6.72524 0 -0.000131128 6.71567 -0.000142301 14.9999C-0.000153474 23.2841 6.7252 29.9998 15.0214 29.9998Z" fill="#DD2B1C"/>
<path fill-rule="evenodd" clip-rule="evenodd" d="M121 21.9899H117.268V15.0021L112.796 21.992H109.047V9.62823H112.796V16.6161L117.268 9.62823H121V21.9899ZM117.939 6.62161C117.939 7.39965 117.813 7.96042 117.56 8.30391C117.262 8.72811 116.742 8.93917 115.996 8.93917H114.052C113.318 8.93917 112.802 8.72811 112.504 8.30391C112.241 7.93766 112.108 7.37689 112.108 6.62161H114.052V7.63555H115.996V6.62161H117.939ZM107.64 18.6419C107.64 19.9248 107.402 20.8043 106.925 21.2781C106.451 21.752 105.57 21.9899 104.285 21.9899H96.0835V18.6419H103.805V17.0444H98.6116C97.5692 17.0444 96.8398 16.8727 96.4274 16.5292C95.9446 16.1526 95.7042 15.4532 95.7042 14.4351V9.62823H99.4881V14.4372H103.805V9.62823H107.64V18.6419ZM94.7738 21.9899H90.992V16.941H87.1583V21.9899H83.3579V16.941H79.5221V21.9899H75.7403V17.9735C75.7403 15.6373 77.0002 14.4703 79.5221 14.4703L75.7403 9.62823H79.661L83.3579 14.4703V9.62823H87.1583V14.4703L90.8552 9.62823H94.7759L90.992 14.4703C93.5139 14.4703 94.7759 15.6373 94.7759 17.9735V21.9899H94.7738ZM70.7338 12.8211H66.4526V14.6234H70.7338V12.8211ZM74.5674 21.9899H70.7338V16.941H66.4526V21.9899H62.6169V9.62823H71.973C72.8786 9.62823 73.5375 9.81033 73.9499 10.1766C74.3644 10.5428 74.5695 11.174 74.5695 12.0658V13.6115C74.5695 14.7786 74.0017 15.5049 72.8682 15.7925C74.0017 16.1257 74.5695 16.852 74.5695 17.9735V21.9899H74.5674ZM61.2077 18.6419C61.2077 20.0159 60.8969 20.9388 60.2794 21.4064C59.753 21.7954 58.7667 21.9899 57.3223 21.9899H53.1447C52.3883 21.9899 51.7521 21.932 51.2362 21.8182C50.4446 21.6464 49.9016 21.2636 49.6012 20.6677C49.3836 20.2207 49.2758 19.5462 49.2758 18.6419V9.62823H53.1447V18.644H57.3223V9.62823H61.2098V18.6419H61.2077ZM44.1118 16.941H39.8306V18.6067H44.1118V16.941ZM44.1118 12.8211H39.8306V14.4703H44.1118V12.8211ZM47.9475 19.2089C47.9475 20.1711 47.7465 20.8746 47.3466 21.3216C46.9446 21.7685 46.269 21.992 45.3179 21.992H35.9949V9.62823H45.351C46.2566 9.62823 46.9155 9.81033 47.3279 10.1766C47.7403 10.5428 47.9454 11.174 47.9454 12.0658V13.6115C47.9454 14.5737 47.5434 15.2318 46.7436 15.5856C47.5455 15.9622 47.9454 16.643 47.9454 17.628V19.2089H47.9475Z" fill="#DD2B1C"/>
<path fill-rule="evenodd" clip-rule="evenodd" d="M11.6396 7.31479C10.3528 7.79072 9.59432 8.49426 8.86696 8.95777C9.2151 7.91694 10.6968 7.321 11.6396 7.31479ZM9.70622 9.10676C9.55288 9.17505 9.44097 9.2185 9.31249 9.24954C9.07626 9.30748 8.8794 9.32403 8.67632 9.39232C8.51261 9.44612 8.38206 9.52889 8.26601 9.62614C8.16033 9.71512 8.08365 9.79582 8.02356 9.88273C7.90337 10.0565 7.79768 10.3297 7.79976 10.5325C7.89508 10.4352 7.98211 10.3587 8.07329 10.2924C8.21421 10.189 8.35305 10.1166 8.50432 10.0545C8.61415 10.009 8.71154 9.9655 8.80272 9.91791C9.20059 9.71512 9.43476 9.41715 9.70622 9.10676ZM7.79354 10.5387C7.79354 10.2428 8.07122 9.73581 8.22871 9.54544C8.34268 9.40887 8.42557 9.25575 8.50225 9.09641C8.63902 8.815 8.75506 8.49219 8.79236 8.24802C8.61829 8.35355 8.4463 8.45702 8.24943 8.606C7.83913 8.93915 7.61118 9.29506 7.66506 9.7834C7.68786 9.96757 7.69614 10.3731 7.79354 10.5387ZM8.5209 10.5883C8.3862 10.6815 8.28673 10.7435 8.16862 10.7953C7.94896 10.8905 7.76038 10.9401 7.57595 11.0415C7.42883 11.1222 7.31692 11.2236 7.22575 11.3395C7.14286 11.445 7.08483 11.5361 7.04546 11.6312C6.96671 11.8216 6.92527 12.1072 6.975 12.3058C7.04546 12.1941 7.11384 12.1051 7.18844 12.0244C7.30449 11.9002 7.42261 11.8051 7.5573 11.7182C7.6547 11.654 7.74173 11.5961 7.81841 11.5361C8.16447 11.2691 8.32611 10.9401 8.5209 10.5883ZM6.97293 12.312C6.90455 12.0203 7.05997 11.4781 7.17394 11.265C7.25476 11.1119 7.30035 10.9484 7.33972 10.7787C7.41018 10.4787 7.45162 10.1435 7.4309 9.89721C7.28377 10.0296 7.13871 10.16 6.98122 10.338C6.65588 10.7332 6.51082 11.1201 6.6766 11.5899C6.73877 11.7699 6.83824 12.1651 6.97293 12.312ZM7.80805 12.0741C7.70029 12.2086 7.61533 12.3017 7.50964 12.3886C7.31278 12.55 7.12835 12.6535 6.97086 12.8107C6.84445 12.9369 6.76363 13.0756 6.70976 13.2225C6.66002 13.357 6.63308 13.4708 6.62687 13.5825C6.61443 13.8081 6.67453 14.1206 6.80094 14.3213C6.83616 14.1826 6.87554 14.0709 6.92527 13.9633C7.00194 13.7998 7.09519 13.6674 7.20502 13.537C7.28584 13.4418 7.35422 13.357 7.41639 13.2722C7.68164 12.8935 7.73137 12.4983 7.80805 12.0741ZM6.79886 14.3275C6.61858 14.0357 6.58542 13.417 6.62479 13.1584C6.65381 12.9742 6.64137 12.788 6.62065 12.5955C6.58335 12.2582 6.5046 11.8899 6.3927 11.6333C6.28702 11.8154 6.17926 11.9913 6.07772 12.2251C5.87671 12.7321 5.86843 13.1853 6.21656 13.6405C6.34919 13.8143 6.59993 14.2075 6.79886 14.3275ZM7.47649 13.8205C7.40189 13.9757 7.33972 14.0854 7.25476 14.1909C7.09727 14.3875 6.93978 14.5261 6.81959 14.7124C6.72426 14.8613 6.6766 15.0145 6.66002 15.1717C6.64344 15.3145 6.64552 15.4345 6.66624 15.5483C6.70976 15.776 6.8486 16.0781 7.02474 16.256C7.02474 16.1112 7.0351 15.9912 7.05997 15.8753C7.09519 15.6973 7.15529 15.5483 7.23403 15.3973C7.29206 15.2876 7.33972 15.1904 7.37909 15.0931C7.55523 14.6648 7.5055 14.2592 7.47649 13.8205ZM7.02888 16.2602C6.77607 16.0015 6.58749 15.3869 6.5647 15.1221C6.54812 14.9317 6.4901 14.7475 6.42171 14.5592C6.30152 14.2282 6.12953 13.8743 5.95339 13.6384C5.89122 13.8391 5.82905 14.0357 5.78554 14.2882C5.71093 14.8324 5.81455 15.2876 6.27666 15.6808C6.44865 15.8277 6.80094 16.1774 7.02888 16.2602ZM7.51379 15.4883C7.49514 15.6684 7.47234 15.7987 7.42468 15.9291C7.33557 16.1753 7.22575 16.3616 7.17187 16.585C7.12835 16.7651 7.13871 16.9347 7.18016 17.1023C7.21746 17.2534 7.26305 17.3755 7.32729 17.4872C7.45576 17.7107 7.7148 17.9838 7.96139 18.1163C7.90751 17.9673 7.87436 17.8411 7.85364 17.7148C7.82462 17.5224 7.82877 17.3507 7.85364 17.1748C7.87021 17.0465 7.88472 16.9327 7.88886 16.8209C7.90959 16.3367 7.70858 15.9332 7.51379 15.4883ZM7.96761 18.1246C7.60911 17.928 7.1843 17.3465 7.05997 17.0796C6.97086 16.8892 6.84031 16.7133 6.70147 16.5395C6.4528 16.2312 6.14196 15.9146 5.87257 15.7201C5.885 15.9436 5.89329 16.165 5.94303 16.436C6.0715 17.0175 6.34919 17.4562 6.97293 17.7355C7.20917 17.839 7.70236 18.1018 7.96761 18.1246ZM8.18312 17.152C8.23493 17.3507 8.26394 17.4934 8.26601 17.6486C8.27016 17.9363 8.22664 18.168 8.2598 18.4225C8.28673 18.6274 8.36548 18.8053 8.47531 18.9709C8.57685 19.1219 8.67424 19.2378 8.78822 19.3371C9.01616 19.5358 9.4016 19.751 9.71658 19.8213C9.59846 19.6786 9.5135 19.5544 9.44097 19.4261C9.33115 19.2295 9.26898 19.0454 9.22339 18.8509C9.19023 18.7102 9.15915 18.5839 9.11978 18.4639C8.94778 17.9404 8.57063 17.57 8.18312 17.152ZM9.72487 19.8296C9.26483 19.7262 8.57892 19.2295 8.33854 18.9812C8.16862 18.8033 7.95932 18.6564 7.73966 18.5115C7.35215 18.257 6.89419 18.0087 6.5274 17.8804C6.62894 18.1163 6.72841 18.348 6.89004 18.6232C7.2589 19.2068 7.73137 19.5937 8.50846 19.7055C8.80272 19.7468 9.43268 19.8834 9.72487 19.8296ZM9.59018 18.7122C9.73109 18.8943 9.82227 19.0309 9.89272 19.184C10.0233 19.4716 10.0772 19.7158 10.2222 19.96C10.3403 20.1566 10.4999 20.3118 10.6885 20.4421C10.8605 20.5621 11.0138 20.649 11.1775 20.7153C11.5029 20.8456 12.0043 20.9429 12.367 20.918C12.1805 20.8104 12.0354 20.7111 11.9049 20.6056C11.7039 20.4421 11.5567 20.2786 11.4262 20.0966C11.3309 19.9641 11.2418 19.8482 11.1485 19.7406C10.7382 19.2668 10.1787 19.0123 9.59018 18.7122ZM12.3815 20.9222C11.851 20.9594 10.9123 20.6718 10.5517 20.4959C10.2947 20.3697 10.0108 20.2869 9.71658 20.2083C9.19645 20.0717 8.60586 19.9641 8.16447 19.9455C8.37377 20.1483 8.57892 20.3511 8.86903 20.5787C9.5135 21.0505 10.1787 21.2926 11.047 21.1684C11.3723 21.1208 12.0955 21.065 12.3815 20.9222ZM18.018 7.31479C19.3049 7.79072 20.0633 8.49426 20.7907 8.95777C20.4446 7.91694 18.9609 7.321 18.018 7.31479ZM20.857 9.91791C20.9481 9.96343 21.0455 10.0069 21.1554 10.0545C21.3066 10.1186 21.4455 10.191 21.5864 10.2924C21.6776 10.3587 21.7646 10.4352 21.8599 10.5325C21.862 10.3297 21.7563 10.0565 21.6361 9.88273C21.576 9.79582 21.4973 9.71512 21.3937 9.62614C21.2776 9.52889 21.1471 9.44819 20.9834 9.39232C20.7803 9.32403 20.5834 9.30748 20.3472 9.24954C20.2208 9.2185 20.1068 9.17505 19.9555 9.10676C20.2229 9.41715 20.457 9.71512 20.857 9.91791ZM21.9905 9.7834C22.0444 9.29506 21.8143 8.93708 21.4061 8.606C21.2113 8.45702 21.0373 8.35355 20.8632 8.24802C20.9005 8.49219 21.0165 8.815 21.1533 9.09641C21.23 9.25575 21.3129 9.40887 21.4268 9.54544C21.5864 9.73581 21.8641 10.2428 21.8641 10.5387C21.9635 10.3731 21.9698 9.96757 21.9905 9.7834ZM21.8392 11.534C21.918 11.594 22.0029 11.654 22.1024 11.7161C22.2371 11.803 22.3552 11.8982 22.4712 12.0223C22.5458 12.103 22.6142 12.192 22.6847 12.3038C22.7323 12.1051 22.693 11.8195 22.6142 11.6292C22.5749 11.534 22.5168 11.4409 22.4339 11.3374C22.3428 11.2236 22.2329 11.1201 22.0837 11.0394C21.8993 10.938 21.7107 10.8905 21.4911 10.7932C21.373 10.7415 21.2735 10.6794 21.1388 10.5863C21.3315 10.9401 21.4931 11.2691 21.8392 11.534ZM22.9831 11.5919C23.1468 11.1222 23.0038 10.7332 22.6785 10.34C22.521 10.1621 22.3759 10.0317 22.2288 9.89928C22.2101 10.1455 22.2516 10.4807 22.32 10.7808C22.3593 10.9505 22.4049 11.1139 22.4858 11.2671C22.5977 11.4802 22.7551 12.0223 22.6868 12.3141C22.8215 12.1651 22.9209 11.7699 22.9831 11.5919ZM22.2454 13.2701C22.3075 13.357 22.3759 13.4418 22.4567 13.535C22.5666 13.6632 22.6598 13.7978 22.7365 13.9612C22.7862 14.0688 22.8256 14.1806 22.8608 14.3192C22.9872 14.1206 23.0473 13.806 23.0349 13.5805C23.0287 13.4687 23.0017 13.3549 22.952 13.2204C22.8981 13.0735 22.8173 12.9349 22.6888 12.8086C22.5313 12.6514 22.3469 12.5479 22.15 12.3865C22.0444 12.2996 21.9594 12.2065 21.8516 12.072C21.9283 12.4983 21.9781 12.8935 22.2454 13.2701ZM23.4411 13.6405C23.7892 13.1832 23.7809 12.7321 23.5799 12.2251C23.4784 11.9934 23.3706 11.8154 23.2649 11.6333C23.153 11.8899 23.0743 12.2582 23.037 12.5955C23.0162 12.7859 23.0038 12.9742 23.0328 13.1584C23.0743 13.417 23.039 14.0357 22.8588 14.3275C23.0577 14.2075 23.3105 13.8143 23.4411 13.6405ZM22.2785 15.091C22.3179 15.1883 22.3676 15.2855 22.4236 15.3952C22.5023 15.5442 22.5624 15.6953 22.5977 15.8732C22.6204 15.9891 22.6329 16.1091 22.6329 16.254C22.8069 16.0781 22.9479 15.7739 22.9914 15.5463C23.0121 15.4325 23.0142 15.3145 22.9976 15.1697C22.9789 15.0124 22.9334 14.8593 22.838 14.7103C22.7178 14.5241 22.5604 14.3854 22.4029 14.1888C22.3179 14.0833 22.2578 13.9736 22.1811 13.8184C22.1521 14.2592 22.1045 14.6648 22.2785 15.091ZM23.3851 15.6787C23.8472 15.2855 23.9508 14.8324 23.8762 14.2861C23.8327 14.0336 23.7685 13.8371 23.7084 13.6363C23.5322 13.8722 23.3602 14.2261 23.24 14.5572C23.1717 14.7455 23.1136 14.9296 23.0971 15.12C23.0743 15.3869 22.8857 16.0015 22.6329 16.2581C22.8588 16.1774 23.209 15.8277 23.3851 15.6787ZM22.1459 15.4883C21.9511 15.9332 21.748 16.3367 21.7688 16.823C21.7729 16.9347 21.7853 17.0485 21.804 17.1768C21.8288 17.3527 21.833 17.5224 21.804 17.7169C21.7853 17.8431 21.7522 17.9694 21.6962 18.1183C21.9428 17.9859 22.2019 17.7107 22.3303 17.4893C22.3946 17.3776 22.4402 17.2555 22.4775 17.1044C22.5189 16.9389 22.5272 16.7671 22.4858 16.5871C22.4319 16.3616 22.322 16.1774 22.2329 15.9311C22.1873 15.7987 22.1646 15.6684 22.1459 15.4883ZM22.6847 17.7355C23.3084 17.4583 23.5861 17.0196 23.7146 16.436C23.7643 16.165 23.7726 15.9436 23.785 15.7201C23.5157 15.9146 23.2048 16.2333 22.9562 16.5395C22.8152 16.7133 22.6847 16.8871 22.5977 17.0796C22.4733 17.3465 22.0485 17.928 21.69 18.1246C21.9573 18.1018 22.4485 17.839 22.6847 17.7355ZM20.5378 18.4639C20.4985 18.5839 20.4653 18.7102 20.4342 18.8509C20.3907 19.0454 20.3265 19.2295 20.2166 19.4261C20.1462 19.5544 20.0592 19.6786 19.941 19.8213C20.2581 19.751 20.6435 19.5358 20.8694 19.3371C20.9834 19.2378 21.0808 19.1199 21.1823 18.9709C21.2921 18.8053 21.3709 18.6274 21.3978 18.4225C21.431 18.168 21.3875 17.9383 21.3916 17.6486C21.3937 17.4934 21.4227 17.3507 21.4745 17.152C21.0891 17.57 20.7119 17.9404 20.5378 18.4639ZM21.1492 19.7055C21.9262 19.5917 22.3987 19.2068 22.7676 18.6232C22.9292 18.348 23.0266 18.1163 23.1302 17.8804C22.7655 18.0087 22.3055 18.257 21.918 18.5115C21.6983 18.6564 21.489 18.8033 21.3191 18.9812C21.0787 19.2295 20.3928 19.7241 19.9327 19.8296C20.227 19.8834 20.8549 19.7468 21.1492 19.7055ZM20.0674 18.7122C19.4789 19.0123 18.9215 19.2668 18.5091 19.7406C18.4159 19.8482 18.3268 19.9641 18.2314 20.0966C18.1009 20.2766 17.9538 20.4421 17.7527 20.6056C17.6222 20.7132 17.4771 20.8104 17.2906 20.918C17.6554 20.9449 18.1548 20.8456 18.4801 20.7153C18.6438 20.6511 18.7972 20.5642 18.9692 20.4421C19.1577 20.3097 19.3173 20.1566 19.4354 19.96C19.5825 19.7158 19.6364 19.4716 19.7649 19.184C19.8354 19.0309 19.9265 18.8943 20.0674 18.7122ZM18.6127 21.1684C19.481 21.2926 20.1462 21.0484 20.7907 20.5787C21.0808 20.3531 21.2859 20.1504 21.4952 19.9455C21.0538 19.9641 20.4632 20.0717 19.9431 20.2083C19.6488 20.2869 19.365 20.3697 19.108 20.4959C18.7474 20.6718 17.8087 20.9574 17.2782 20.9222C17.5642 21.065 18.2853 21.1208 18.6127 21.1684ZM19.2054 21.5699C18.9443 21.6092 18.6542 21.6092 18.4677 21.6009C18.2812 21.5926 18.1941 21.5781 18.1133 21.5533C18.0304 21.5305 17.9538 21.4995 17.875 21.4685C17.7818 21.4209 17.6885 21.3753 17.5787 21.3278C17.4688 21.2802 17.3445 21.2346 17.2202 21.187C17.0648 21.125 16.9073 21.0629 16.7601 21.007C16.6109 20.9532 16.4721 20.9056 16.1986 20.8829C15.925 20.8601 15.5189 20.8601 15.2453 20.8704C15.0878 20.8767 14.9739 20.887 14.8827 20.9056C14.7729 20.8725 14.6361 20.856 14.4102 20.8456C14.1367 20.8332 13.7305 20.8332 13.4591 20.858C13.1855 20.8808 13.0446 20.9284 12.8975 20.9822C12.7483 21.036 12.5929 21.1001 12.4374 21.1622C12.3131 21.2098 12.1867 21.2553 12.0789 21.3029C11.9712 21.3505 11.8759 21.396 11.7826 21.4436C11.7039 21.4747 11.6272 21.5057 11.5443 21.5285C11.4635 21.5512 11.3765 21.5678 11.1899 21.5761C11.0034 21.5843 10.7133 21.5843 10.4522 21.545C10.1911 21.5057 9.95696 21.4291 9.7228 21.3505C9.77046 21.3981 9.81605 21.4436 9.86371 21.4912C10.0046 21.6009 10.1455 21.7106 10.2844 21.7954C10.4253 21.8802 10.5662 21.9444 10.6822 21.9899C10.7983 22.0375 10.8936 22.0685 11.0014 22.0913C11.1112 22.1141 11.2355 22.1306 11.3412 22.1389C11.4469 22.1472 11.5339 22.1472 11.6272 22.1389C11.7204 22.1306 11.822 22.1161 11.9505 22.0851C12.0789 22.0541 12.2344 22.0065 12.3753 21.9527C12.5162 21.8989 12.6405 21.8368 12.8125 21.7313C12.9845 21.6257 13.2021 21.4788 13.4218 21.3298C13.4694 21.2988 13.515 21.2677 13.6083 21.2202C13.7015 21.1726 13.8424 21.1105 13.975 21.0753C14.1077 21.0401 14.232 21.0319 14.3895 21.0588C14.4164 21.0629 14.4434 21.0691 14.4724 21.0753C14.4372 21.0981 14.4019 21.1188 14.3667 21.1415C14.2258 21.2202 14.0849 21.2967 13.946 21.3753C13.774 21.485 13.602 21.5926 13.4466 21.7064C13.2912 21.8202 13.1503 21.9361 13.026 22.0458C12.9016 22.1555 12.7918 22.2568 12.682 22.3582C12.7835 22.4679 12.885 22.5755 12.9866 22.6852C13.1026 22.561 13.2207 22.4348 13.3575 22.3024C13.4943 22.1699 13.6497 22.0292 13.8072 21.8968C13.9626 21.7644 14.1201 21.6402 14.2755 21.5305C14.4309 21.4209 14.5884 21.3278 14.7604 21.2491C14.7957 21.2326 14.8309 21.2181 14.8661 21.2036C14.8806 21.2098 14.8951 21.216 14.9096 21.2222C15.0816 21.3009 15.237 21.394 15.3945 21.5036C15.55 21.6133 15.7074 21.7375 15.8629 21.8699C16.0183 22.0023 16.1758 22.143 16.3125 22.2755C16.4493 22.4079 16.5653 22.5321 16.6835 22.6583C16.785 22.5486 16.8865 22.4389 16.9881 22.3313C16.8783 22.2299 16.7705 22.1286 16.6441 22.0189C16.5198 21.9092 16.3788 21.7933 16.2234 21.6795C16.068 21.5657 15.896 21.4581 15.724 21.3484C15.5831 21.2698 15.4422 21.1933 15.3034 21.1146C15.2888 21.1043 15.2723 21.096 15.2578 21.0857C15.2661 21.0836 15.2723 21.0836 15.2785 21.0815C15.4339 21.0546 15.5603 21.0629 15.6929 21.0981C15.8256 21.1332 15.9665 21.1953 16.0597 21.2429C16.153 21.2905 16.2006 21.3215 16.2462 21.3526C16.4659 21.5016 16.6835 21.6485 16.8555 21.754C17.0275 21.8596 17.1518 21.9216 17.2927 21.9754C17.4336 22.0292 17.589 22.0768 17.7175 22.1079C17.846 22.1389 17.9455 22.1555 18.0387 22.1617C18.132 22.1699 18.219 22.1699 18.3247 22.1617C18.4304 22.1534 18.5568 22.1389 18.6645 22.1141C18.7744 22.0913 18.8676 22.0603 18.9837 22.0127C19.0997 21.9672 19.2406 21.903 19.3815 21.8182C19.5224 21.7313 19.6634 21.6237 19.8022 21.514C19.8499 21.4664 19.8954 21.4209 19.9431 21.3733C19.7027 21.4519 19.4686 21.5305 19.2054 21.5699ZM12.2654 11.9809C12.2654 12.0886 12.3525 12.1734 12.4602 12.1734C12.568 12.1734 12.655 12.0865 12.655 11.9809C12.655 11.8733 12.568 11.7864 12.4602 11.7864C12.3504 11.7864 12.2654 11.8733 12.2654 11.9809ZM14.0724 11.9168C14.0724 12.0244 14.1595 12.1092 14.2652 12.1092C14.3729 12.1092 14.4599 12.0223 14.4599 11.9168C14.4599 11.8092 14.3729 11.7244 14.2652 11.7244C14.1595 11.7223 14.0724 11.8092 14.0724 11.9168ZM15.6225 11.8527C15.6225 11.9603 15.7095 12.0472 15.8173 12.0472C15.925 12.0472 16.0121 11.9603 16.0121 11.8527C16.0121 11.7451 15.925 11.6602 15.8173 11.6602C15.7095 11.6581 15.6225 11.7451 15.6225 11.8527ZM15.0796 9.39439C17.6035 9.39439 19.6716 10.8449 19.8789 12.6907H10.2802C10.4875 10.8429 12.5556 9.39439 15.0796 9.39439ZM9.69172 12.9949C9.69172 13.0942 9.69586 13.1915 9.70622 13.2887H20.455C20.4632 13.1915 20.4674 13.0921 20.4674 12.9949C20.4674 10.6835 18.0553 8.81086 15.0796 8.81086C12.1038 8.81086 9.69172 10.6835 9.69172 12.9949ZM10.0046 16.3015C10.0046 16.5147 10.1787 16.6885 10.3921 16.6885H19.8229C20.0364 16.6885 20.2104 16.5147 20.2104 16.3015C20.2104 16.0884 20.0364 15.9146 19.8229 15.9146H10.3921C10.1787 15.9146 10.0046 16.0884 10.0046 16.3015ZM9.47413 16.3015C9.47413 16.7982 9.88029 17.2037 10.3776 17.2037H19.8312C20.3285 17.2037 20.7347 16.7982 20.7347 16.3015C20.7347 15.8049 20.3285 15.3994 19.8312 15.3994H10.3776C9.88029 15.3994 9.47413 15.8049 9.47413 16.3015ZM8.98301 14.3068C8.98301 14.6896 9.29592 15.0021 9.67928 15.0021H20.5648C20.9481 15.0021 21.2611 14.6896 21.2611 14.3068C21.2611 13.924 20.9481 13.6115 20.5648 13.6115H14.8516C14.0248 14.0419 13.5378 14.4123 12.5742 14.7206C12.4665 14.762 12.2157 14.5344 11.6313 13.6115H9.67928C9.29592 13.6115 8.98301 13.924 8.98301 14.3068ZM11.2956 11.594C11.2956 11.7016 11.3827 11.7864 11.4904 11.7864C11.5982 11.7864 11.6852 11.6995 11.6852 11.594C11.6852 11.4864 11.5982 11.4016 11.4904 11.4016C11.3827 11.3995 11.2956 11.4864 11.2956 11.594ZM12.3297 11.0125C12.3297 11.1201 12.4167 11.205 12.5245 11.205C12.6322 11.205 12.7193 11.1181 12.7193 11.0125C12.7193 10.9049 12.6322 10.818 12.5245 10.818C12.4167 10.8201 12.3297 10.907 12.3297 11.0125ZM13.1047 11.3995C13.1047 11.5071 13.1917 11.5919 13.2974 11.5919C13.4052 11.5919 13.4922 11.505 13.4922 11.3995C13.4922 11.2919 13.4052 11.207 13.2974 11.207C13.1917 11.207 13.1047 11.294 13.1047 11.3995ZM13.7512 10.756C13.7512 10.8636 13.8383 10.9484 13.944 10.9484C14.0517 10.9484 14.1388 10.8615 14.1388 10.756C14.1388 10.6484 14.0517 10.5635 13.944 10.5635C13.8362 10.5614 13.7512 10.6484 13.7512 10.756ZM14.6547 10.3028C14.6547 10.4104 14.7418 10.4973 14.8475 10.4952C14.9552 10.4952 15.0423 10.4083 15.0423 10.3028C15.0423 10.1952 14.9552 10.1083 14.8475 10.1083C14.7418 10.1103 14.6547 10.1973 14.6547 10.3028ZM14.7832 11.207C14.7832 11.3146 14.8703 11.3995 14.9759 11.3995C15.0837 11.3995 15.1707 11.3126 15.1707 11.207C15.1707 11.0994 15.0837 11.0146 14.9759 11.0146C14.8703 11.0125 14.7832 11.0994 14.7832 11.207ZM15.6888 10.6256C15.6888 10.7332 15.7758 10.818 15.8815 10.818C15.9893 10.818 16.0763 10.7311 16.0763 10.6256C16.0763 10.518 15.9893 10.4331 15.8836 10.4331C15.7738 10.4331 15.6888 10.5201 15.6888 10.6256ZM16.8513 10.5614C16.8513 10.669 16.9384 10.7539 17.0461 10.7539C17.1539 10.7539 17.2388 10.667 17.2388 10.5614C17.2388 10.4538 17.1518 10.369 17.0461 10.369C16.9363 10.369 16.8513 10.4559 16.8513 10.5614ZM16.4638 11.3353C16.4638 11.4429 16.5508 11.5278 16.6586 11.5278C16.7664 11.5278 16.8513 11.4409 16.8513 11.3353C16.8513 11.2277 16.7643 11.1408 16.6586 11.1408C16.5488 11.1429 16.4638 11.2298 16.4638 11.3353ZM16.9798 11.8527C16.9798 11.9603 17.0668 12.0472 17.1746 12.0472C17.2823 12.0472 17.3694 11.9603 17.3694 11.8527C17.3694 11.7451 17.2823 11.6602 17.1746 11.6602C17.0668 11.6581 16.9798 11.7451 16.9798 11.8527ZM17.56 11.3353C17.56 11.4429 17.6471 11.5278 17.7548 11.5278C17.8626 11.5278 17.9496 11.4409 17.9496 11.3353C17.9496 11.2277 17.8626 11.1408 17.7548 11.1408C17.6471 11.1429 17.56 11.2298 17.56 11.3353ZM18.5298 11.8527C18.5298 11.9603 18.6169 12.0472 18.7246 12.0472C18.8324 12.0472 18.9173 11.9603 18.9173 11.8527C18.9173 11.7451 18.8303 11.6602 18.7246 11.6602C18.6169 11.6581 18.5298 11.7451 18.5298 11.8527Z" fill="#FBE116"/>
</g>
<defs>
<clipPath id="clip0_4015_846">
<rect width="121" height="30" fill="white"/>
</clipPath>
</defs>
</svg>
