<svg width="24" height="24" viewBox="0 0 24 24" fill="none" xmlns="http://www.w3.org/2000/svg">
<rect width="24.0002" height="24" rx="12" fill="#DD2B1C"/>
<path fill-rule="evenodd" clip-rule="evenodd" d="M9.31223 5.85188C8.28273 6.23263 7.67597 6.79547 7.09408 7.16628C7.37259 6.33361 8.55792 5.85685 9.31223 5.85188ZM7.76549 7.28547C7.64281 7.3401 7.55329 7.37486 7.45051 7.3997C7.26152 7.44605 7.10403 7.45929 6.94156 7.51392C6.81059 7.55696 6.70615 7.62318 6.61331 7.70098C6.52877 7.77216 6.46743 7.83672 6.41935 7.90625C6.3232 8.04531 6.23865 8.26382 6.24031 8.42605C6.31657 8.34825 6.38619 8.287 6.45914 8.23402C6.57187 8.15125 6.68294 8.09331 6.80396 8.04365C6.89183 8.00723 6.96974 7.97247 7.04269 7.93439C7.36099 7.77216 7.54832 7.53378 7.76549 7.28547ZM6.23533 8.43102C6.23533 8.19429 6.45748 7.78872 6.58347 7.63642C6.67465 7.52716 6.74097 7.40466 6.8023 7.27719C6.91172 7.05206 7.00456 6.79381 7.0344 6.59847C6.89514 6.6829 6.75754 6.76567 6.60005 6.88486C6.27181 7.15138 6.08945 7.43611 6.13255 7.82679C6.15079 7.97412 6.15742 8.29859 6.23533 8.43102ZM6.81722 8.47075C6.70947 8.54524 6.62989 8.5949 6.5354 8.63629C6.35967 8.71244 6.20881 8.75217 6.06126 8.83328C5.94356 8.89784 5.85404 8.97896 5.78109 9.07166C5.71478 9.15609 5.66836 9.22893 5.63686 9.30508C5.57387 9.45738 5.54071 9.68582 5.5805 9.84474C5.63686 9.75535 5.69157 9.68417 5.75125 9.61961C5.84409 9.52028 5.93859 9.44413 6.04634 9.3746C6.12426 9.32329 6.19389 9.27694 6.25523 9.22893C6.53208 9.01538 6.66139 8.75217 6.81722 8.47075ZM5.57884 9.84971C5.52413 9.6163 5.64847 9.18258 5.73965 9.01207C5.8043 8.88957 5.84078 8.75879 5.87227 8.62305C5.92864 8.38301 5.9618 8.11483 5.94522 7.91784C5.82751 8.02379 5.71147 8.12808 5.58547 8.27044C5.3252 8.58663 5.20915 8.89619 5.34177 9.27197C5.39151 9.41599 5.47108 9.73217 5.57884 9.84971ZM6.24694 9.65934C6.16073 9.76694 6.09276 9.84143 6.00821 9.91096C5.85072 10.0401 5.70318 10.1229 5.57718 10.2487C5.47606 10.3496 5.4114 10.4606 5.3683 10.5781C5.32851 10.6857 5.30696 10.7767 5.30199 10.8661C5.29204 11.0466 5.34012 11.2965 5.44124 11.4571C5.46943 11.3462 5.50092 11.2568 5.54071 11.1707C5.60205 11.04 5.67665 10.934 5.76452 10.8297C5.82917 10.7536 5.88388 10.6857 5.93361 10.6178C6.14581 10.3149 6.1856 9.9987 6.24694 9.65934ZM5.43959 11.4621C5.29536 11.2287 5.26883 10.7337 5.30033 10.5268C5.32354 10.3794 5.31359 10.2305 5.29701 10.0765C5.26717 9.80667 5.20418 9.512 5.11465 9.30673C5.03011 9.45241 4.9439 9.59312 4.86267 9.78018C4.70186 10.1858 4.69523 10.5483 4.97374 10.9125C5.07984 11.0515 5.28044 11.3661 5.43959 11.4621ZM5.98169 11.0565C5.92201 11.1807 5.87227 11.2684 5.8043 11.3528C5.67831 11.5101 5.55232 11.621 5.45616 11.77C5.3799 11.8892 5.34177 12.0117 5.32851 12.1375C5.31525 12.2517 5.31691 12.3477 5.33349 12.4388C5.3683 12.6209 5.47937 12.8626 5.62029 13.0049C5.62029 12.889 5.62858 12.793 5.64847 12.7003C5.67665 12.558 5.72473 12.4388 5.78773 12.3179C5.83414 12.2302 5.87227 12.1524 5.90377 12.0746C6.04469 11.7319 6.0049 11.4075 5.98169 11.0565ZM5.6236 13.0082C5.42135 12.8013 5.27049 12.3097 5.25225 12.0978C5.23899 11.9455 5.19257 11.7981 5.13786 11.6475C5.04171 11.3826 4.90411 11.0995 4.7632 10.9108C4.71346 11.0714 4.66373 11.2287 4.62892 11.4306C4.56924 11.866 4.65213 12.2302 5.02182 12.5447C5.15942 12.6623 5.44124 12.942 5.6236 13.0082ZM6.01153 12.3908C5.99661 12.5348 5.97837 12.6391 5.94024 12.7434C5.86896 12.9404 5.78109 13.0894 5.73799 13.2681C5.70318 13.4122 5.71147 13.5479 5.74462 13.682C5.77446 13.8028 5.81093 13.9005 5.86233 13.9899C5.96511 14.1687 6.17234 14.3872 6.36962 14.4931C6.32651 14.374 6.29999 14.273 6.28341 14.172C6.2602 14.018 6.26352 13.8806 6.28341 13.7399C6.29667 13.6373 6.30828 13.5462 6.31159 13.4569C6.32817 13.0695 6.16736 12.7467 6.01153 12.3908ZM6.37459 14.4998C6.08779 14.3425 5.74794 13.8773 5.64847 13.6638C5.57718 13.5115 5.47274 13.3708 5.36167 13.2317C5.16273 12.9851 4.91406 12.7318 4.69854 12.5762C4.70849 12.755 4.71512 12.9321 4.75491 13.1489C4.85769 13.6141 5.07984 13.9651 5.57884 14.1885C5.76783 14.2713 6.16239 14.4816 6.37459 14.4998ZM6.547 13.7217C6.58845 13.8806 6.61166 13.9949 6.61331 14.119C6.61663 14.3491 6.58182 14.5345 6.60834 14.7381C6.62989 14.902 6.69289 15.0444 6.78075 15.1768C6.86199 15.2977 6.9399 15.3904 7.03108 15.4698C7.21344 15.6288 7.52179 15.8009 7.77378 15.8572C7.67929 15.743 7.61132 15.6437 7.55329 15.541C7.46543 15.3838 7.41569 15.2364 7.37922 15.0808C7.3527 14.9682 7.32783 14.8673 7.29633 14.7713C7.15873 14.3524 6.85701 14.0561 6.547 13.7217ZM7.78041 15.8638C7.41238 15.7811 6.86364 15.3838 6.67134 15.1851C6.5354 15.0427 6.36796 14.9252 6.19223 14.8093C5.88222 14.6057 5.51584 14.4071 5.22241 14.3044C5.30365 14.4931 5.38322 14.6786 5.51253 14.8987C5.80762 15.3655 6.1856 15.6751 6.80728 15.7645C7.04269 15.7976 7.54666 15.9069 7.78041 15.8638ZM7.67265 14.9699C7.78538 15.1156 7.85833 15.2248 7.91469 15.3473C8.01914 15.5774 8.06224 15.7728 8.17829 15.9681C8.27278 16.1254 8.40043 16.2495 8.55129 16.3538C8.68889 16.4498 8.81157 16.5194 8.94254 16.5723C9.20281 16.6766 9.604 16.7544 9.89412 16.7346C9.74492 16.6485 9.62887 16.569 9.52443 16.4846C9.36362 16.3538 9.24591 16.2231 9.14147 16.0774C9.06521 15.9714 8.99393 15.8787 8.91933 15.7926C8.59108 15.4136 8.14347 15.2099 7.67265 14.9699ZM9.90572 16.7379C9.48132 16.7677 8.73034 16.5376 8.44188 16.3969C8.23631 16.2959 8.00919 16.2297 7.77378 16.1668C7.35767 16.0575 6.88519 15.9714 6.53208 15.9565C6.69952 16.1188 6.86364 16.281 7.09574 16.4631C7.61132 16.8405 8.14347 17.0342 8.83809 16.9349C9.09837 16.8968 9.67695 16.8521 9.90572 16.7379ZM14.415 5.85188C15.4445 6.23263 16.0512 6.79547 16.6331 7.16628C16.3563 6.33361 15.1693 5.85685 14.415 5.85188ZM16.6862 7.93439C16.7591 7.97081 16.837 8.00558 16.9249 8.04365C17.0459 8.09497 17.157 8.15291 17.2697 8.23402C17.3427 8.287 17.4123 8.34825 17.4885 8.42605C17.4902 8.26382 17.4057 8.04531 17.3095 7.90625C17.2614 7.83672 17.1984 7.77216 17.1155 7.70098C17.0227 7.62318 16.9183 7.55861 16.7873 7.51392C16.6248 7.45929 16.4673 7.44605 16.2783 7.3997C16.1772 7.37486 16.086 7.3401 15.965 7.28547C16.1789 7.53378 16.3662 7.77216 16.6862 7.93439ZM17.593 7.82679C17.6361 7.43611 17.4521 7.14973 17.1255 6.88486C16.9696 6.76567 16.8304 6.6829 16.6911 6.59847C16.721 6.79381 16.8138 7.05206 16.9232 7.27719C16.9846 7.40466 17.0509 7.52716 17.1421 7.63642C17.2697 7.78872 17.4919 8.19429 17.4919 8.43102C17.5714 8.29859 17.5764 7.97412 17.593 7.82679ZM17.472 9.22727C17.535 9.27528 17.6029 9.32329 17.6825 9.37295C17.7903 9.44248 17.8848 9.51863 17.9776 9.61795C18.0373 9.68251 18.092 9.75369 18.1483 9.84309C18.1865 9.68417 18.155 9.45572 18.092 9.30342C18.0605 9.22727 18.0141 9.15278 17.9478 9.07001C17.8748 8.97896 17.7869 8.89619 17.6676 8.83163C17.52 8.75051 17.3692 8.71244 17.1934 8.63463C17.099 8.59325 17.0194 8.54359 16.9116 8.46909C17.0658 8.75217 17.1951 9.01538 17.472 9.22727ZM18.3871 9.27362C18.518 8.89785 18.4037 8.58663 18.1434 8.2721C18.0174 8.12973 17.9013 8.02544 17.7836 7.9195C17.7687 8.11649 17.8019 8.38467 17.8566 8.6247C17.8881 8.76045 17.9245 8.89122 17.9892 9.01372C18.0787 9.18423 18.2047 9.61795 18.15 9.85136C18.2578 9.73217 18.3373 9.41599 18.3871 9.27362ZM17.7969 10.6162C17.8466 10.6857 17.9013 10.7536 17.966 10.8281C18.0539 10.9307 18.1285 11.0383 18.1898 11.1691C18.2296 11.2552 18.2611 11.3445 18.2893 11.4555C18.3904 11.2965 18.4385 11.0449 18.4285 10.8645C18.4235 10.7751 18.402 10.684 18.3622 10.5764C18.3191 10.4589 18.2544 10.348 18.1517 10.247C18.0257 10.1212 17.8781 10.0384 17.7206 9.9093C17.6361 9.83978 17.5681 9.76528 17.4819 9.65768C17.5432 9.9987 17.583 10.3149 17.7969 10.6162ZM18.7534 10.9125C19.032 10.5466 19.0253 10.1858 18.8645 9.78018C18.7833 9.59477 18.6971 9.45241 18.6125 9.30673C18.523 9.512 18.46 9.80667 18.4302 10.0765C18.4136 10.2288 18.4037 10.3794 18.4269 10.5268C18.46 10.7337 18.4318 11.2287 18.2876 11.4621C18.4468 11.3661 18.649 11.0515 18.7534 10.9125ZM17.8234 12.0729C17.8549 12.1507 17.8947 12.2285 17.9395 12.3163C18.0025 12.4355 18.0505 12.5563 18.0787 12.6987C18.097 12.7914 18.1069 12.8874 18.1069 13.0033C18.2462 12.8626 18.3589 12.6192 18.3937 12.4371C18.4103 12.3461 18.4119 12.2517 18.3987 12.1358C18.3838 12.01 18.3473 11.8875 18.271 11.7683C18.1749 11.6193 18.0489 11.5084 17.9229 11.3512C17.8549 11.2667 17.8068 11.179 17.7455 11.0549C17.7223 11.4075 17.6842 11.7319 17.8234 12.0729ZM18.7087 12.5431C19.0784 12.2285 19.1613 11.866 19.1016 11.429C19.0668 11.227 19.0154 11.0697 18.9673 10.9092C18.8264 11.0979 18.6888 11.381 18.5926 11.6458C18.5379 11.7965 18.4915 11.9438 18.4783 12.0961C18.46 12.3097 18.3092 12.8013 18.1069 13.0066C18.2876 12.942 18.5678 12.6623 18.7087 12.5431ZM17.7173 12.3908C17.5615 12.7467 17.399 13.0695 17.4156 13.4585C17.4189 13.5479 17.4289 13.639 17.4438 13.7416C17.4637 13.8823 17.467 14.018 17.4438 14.1737C17.4289 14.2746 17.4023 14.3756 17.3576 14.4948C17.5549 14.3889 17.7621 14.1687 17.8649 13.9916C17.9163 13.9022 17.9527 13.8045 17.9826 13.6836C18.0157 13.5512 18.0224 13.4138 17.9892 13.2698C17.9461 13.0894 17.8582 12.942 17.7869 12.745C17.7505 12.6391 17.7322 12.5348 17.7173 12.3908ZM18.1483 14.1885C18.6473 13.9667 18.8695 13.6158 18.9723 13.1489C19.0121 12.9321 19.0187 12.755 19.0286 12.5762C18.8131 12.7318 18.5645 12.9867 18.3655 13.2317C18.2528 13.3708 18.1483 13.5098 18.0787 13.6638C17.9793 13.8773 17.6394 14.3425 17.3526 14.4998C17.5665 14.4816 17.9594 14.2713 18.1483 14.1885ZM16.4309 14.7713C16.3994 14.8673 16.3728 14.9682 16.348 15.0808C16.3132 15.2364 16.2618 15.3838 16.1739 15.541C16.1175 15.6437 16.0479 15.743 15.9534 15.8572C16.2071 15.8009 16.5154 15.6288 16.6961 15.4698C16.7873 15.3904 16.8652 15.296 16.9464 15.1768C17.0343 15.0444 17.0973 14.902 17.1188 14.7381C17.1454 14.5345 17.1106 14.3508 17.1139 14.119C17.1155 13.9949 17.1387 13.8806 17.1802 13.7217C16.8718 14.0561 16.5701 14.3524 16.4309 14.7713ZM16.9199 15.7645C17.5416 15.6735 17.9196 15.3655 18.2147 14.8987C18.344 14.6786 18.4219 14.4931 18.5048 14.3044C18.213 14.4071 17.845 14.6057 17.535 14.8093C17.3592 14.9252 17.1918 15.0427 17.0559 15.1851C16.8635 15.3838 16.3148 15.7794 15.9468 15.8638C16.1822 15.9069 16.6845 15.7976 16.9199 15.7645ZM16.0545 14.9699C15.5837 15.2099 15.1378 15.4136 14.8079 15.7926C14.7333 15.8787 14.662 15.9714 14.5857 16.0774C14.4813 16.2214 14.3636 16.3538 14.2028 16.4846C14.0983 16.5707 13.9823 16.6485 13.8331 16.7346C14.1248 16.7561 14.5244 16.6766 14.7847 16.5723C14.9156 16.521 15.0383 16.4515 15.1759 16.3538C15.3268 16.2479 15.4544 16.1254 15.5489 15.9681C15.6666 15.7728 15.7097 15.5774 15.8125 15.3473C15.8689 15.2248 15.9418 15.1156 16.0545 14.9699ZM14.8908 16.9349C15.5854 17.0342 16.1175 16.8389 16.6331 16.4631C16.8652 16.2826 17.0293 16.1204 17.1968 15.9565C16.8437 15.9714 16.3712 16.0575 15.9551 16.1668C15.7197 16.2297 15.4925 16.2959 15.287 16.3969C14.9985 16.5376 14.2475 16.766 13.8231 16.7379C14.0519 16.8521 14.6288 16.8968 14.8908 16.9349ZM15.3649 17.256C15.156 17.2875 14.9239 17.2875 14.7747 17.2809C14.6255 17.2742 14.5559 17.2627 14.4912 17.2428C14.4249 17.2246 14.3636 17.1997 14.3006 17.1749C14.226 17.1368 14.1514 17.1004 14.0635 17.0623C13.9756 17.0243 13.8762 16.9879 13.7767 16.9498C13.6524 16.9001 13.5264 16.8505 13.4087 16.8058C13.2893 16.7627 13.1782 16.7246 12.9594 16.7064C12.7406 16.6882 12.4156 16.6882 12.1968 16.6965C12.0708 16.7015 11.9796 16.7097 11.9067 16.7246C11.8188 16.6982 11.7094 16.6849 11.5287 16.6766C11.3099 16.6667 10.985 16.6667 10.7678 16.6866C10.549 16.7048 10.4362 16.7429 10.3185 16.7859C10.1992 16.8289 10.0748 16.8803 9.95048 16.9299C9.85102 16.968 9.74989 17.0044 9.66368 17.0425C9.57748 17.0806 9.50122 17.117 9.42662 17.1551C9.36362 17.1799 9.30228 17.2047 9.23597 17.2229C9.17131 17.2411 9.10169 17.2544 8.95248 17.261C8.80328 17.2676 8.57119 17.2676 8.3623 17.2362C8.15342 17.2047 7.96609 17.1435 7.77875 17.0806C7.81688 17.1186 7.85336 17.1551 7.89148 17.1931C8.00422 17.2809 8.11695 17.3686 8.22802 17.4365C8.34075 17.5043 8.45348 17.5557 8.54632 17.5921C8.63916 17.6302 8.71542 17.655 8.80162 17.6732C8.88949 17.6914 8.98895 17.7046 9.0735 17.7113C9.15805 17.7179 9.22768 17.7179 9.30228 17.7113C9.37688 17.7046 9.45811 17.6931 9.5609 17.6682C9.66368 17.6434 9.78802 17.6053 9.90075 17.5623C10.0135 17.5192 10.1129 17.4696 10.2505 17.3852C10.3881 17.3007 10.5622 17.1832 10.7379 17.064C10.7761 17.0392 10.8125 17.0143 10.8871 16.9763C10.9617 16.9382 11.0745 16.8885 11.1806 16.8604C11.2867 16.8322 11.3861 16.8256 11.5121 16.8471C11.5337 16.8505 11.5552 16.8554 11.5785 16.8604C11.5503 16.8786 11.5221 16.8952 11.4939 16.9134C11.3812 16.9763 11.2684 17.0375 11.1574 17.1004C11.0198 17.1882 10.8822 17.2742 10.7578 17.3653C10.6335 17.4563 10.5208 17.549 10.4213 17.6368C10.3218 17.7245 10.234 17.8056 10.1461 17.8867C10.2273 17.9745 10.3086 18.0606 10.3898 18.1483C10.4826 18.049 10.5771 17.948 10.6866 17.842C10.796 17.7361 10.9203 17.6235 11.0463 17.5176C11.1706 17.4116 11.2966 17.3123 11.421 17.2246C11.5453 17.1368 11.6713 17.0623 11.8089 16.9994C11.8371 16.9862 11.8653 16.9746 11.8934 16.963C11.905 16.968 11.9166 16.973 11.9282 16.9779C12.0658 17.0408 12.1902 17.1153 12.3162 17.2031C12.4405 17.2908 12.5665 17.3901 12.6908 17.4961C12.8152 17.602 12.9412 17.7146 13.0506 17.8205C13.16 17.9265 13.2528 18.0258 13.3473 18.1268C13.4286 18.039 13.5098 17.9513 13.591 17.8652C13.5032 17.7841 13.417 17.703 13.3158 17.6153C13.2164 17.5275 13.1036 17.4348 12.9793 17.3438C12.855 17.2527 12.7174 17.1666 12.5798 17.0789C12.467 17.016 12.3543 16.9547 12.2432 16.8918C12.2316 16.8836 12.2184 16.8769 12.2068 16.8687C12.2134 16.867 12.2184 16.867 12.2233 16.8654C12.3477 16.8438 12.4488 16.8505 12.5549 16.8786C12.661 16.9067 12.7737 16.9564 12.8483 16.9945C12.9229 17.0326 12.9611 17.0574 12.9975 17.0822C13.1733 17.2014 13.3473 17.3189 13.4849 17.4034C13.6225 17.4878 13.722 17.5375 13.8347 17.5805C13.9475 17.6235 14.0718 17.6616 14.1746 17.6864C14.2774 17.7113 14.3569 17.7245 14.4315 17.7295C14.5061 17.7361 14.5758 17.7361 14.6603 17.7295C14.7449 17.7229 14.846 17.7113 14.9322 17.6914C15.0201 17.6732 15.0947 17.6484 15.1875 17.6103C15.2803 17.5739 15.3931 17.5226 15.5058 17.4547C15.6185 17.3852 15.7313 17.2991 15.8423 17.2113C15.8805 17.1733 15.9169 17.1368 15.9551 17.0988C15.7628 17.1617 15.5754 17.2246 15.3649 17.256ZM9.81289 9.58484C9.81289 9.67092 9.88251 9.7388 9.96872 9.7388C10.0549 9.7388 10.1246 9.66927 10.1246 9.58484C10.1246 9.49876 10.0549 9.42923 9.96872 9.42923C9.88086 9.42923 9.81289 9.49876 9.81289 9.58484ZM11.2585 9.53352C11.2585 9.61961 11.3281 9.68748 11.4127 9.68748C11.4989 9.68748 11.5685 9.61795 11.5685 9.53352C11.5685 9.44744 11.4989 9.37957 11.4127 9.37957C11.3281 9.37792 11.2585 9.44744 11.2585 9.53352ZM12.4985 9.48221C12.4985 9.56829 12.5682 9.63782 12.6544 9.63782C12.7406 9.63782 12.8102 9.56829 12.8102 9.48221C12.8102 9.39612 12.7406 9.32825 12.6544 9.32825C12.5682 9.3266 12.4985 9.39612 12.4985 9.48221ZM12.0642 7.51557C14.0834 7.51557 15.7379 8.67602 15.9037 10.1526H8.2247C8.39049 8.67436 10.045 7.51557 12.0642 7.51557ZM7.75389 10.396C7.75389 10.4755 7.7572 10.5533 7.76549 10.6311H16.3645C16.3712 10.5533 16.3745 10.4738 16.3745 10.396C16.3745 8.5469 14.4448 7.04875 12.0642 7.04875C9.68358 7.04875 7.75389 8.5469 7.75389 10.396ZM8.00422 13.0413C8.00422 13.2119 8.14347 13.3509 8.31423 13.3509H15.8589C16.0297 13.3509 16.1689 13.2119 16.1689 13.0413C16.1689 12.8708 16.0297 12.7318 15.8589 12.7318H8.31423C8.14347 12.7318 8.00422 12.8708 8.00422 13.0413ZM7.57982 13.0413C7.57982 13.4386 7.90475 13.7631 8.30262 13.7631H15.8655C16.2634 13.7631 16.5884 13.4386 16.5884 13.0413C16.5884 12.644 16.2634 12.3196 15.8655 12.3196H8.30262C7.90475 12.3196 7.57982 12.644 7.57982 13.0413ZM7.18692 11.4455C7.18692 11.7518 7.43725 12.0017 7.74394 12.0017H16.4524C16.7591 12.0017 17.0094 11.7518 17.0094 11.4455C17.0094 11.1393 16.7591 10.8893 16.4524 10.8893H11.8818C11.2204 11.2336 10.8308 11.53 10.0599 11.7766C9.97369 11.8097 9.7731 11.6276 9.3056 10.8893H7.74394C7.43725 10.8893 7.18692 11.1393 7.18692 11.4455ZM9.03703 9.27528C9.03703 9.36136 9.10666 9.42923 9.19286 9.42923C9.27907 9.42923 9.3487 9.35971 9.3487 9.27528C9.3487 9.1892 9.27907 9.12133 9.19286 9.12133C9.10666 9.11967 9.03703 9.1892 9.03703 9.27528ZM9.86428 8.81011C9.86428 8.89619 9.93391 8.96406 10.0201 8.96406C10.1063 8.96406 10.1759 8.89453 10.1759 8.81011C10.1759 8.72403 10.1063 8.6545 10.0201 8.6545C9.93391 8.65615 9.86428 8.72568 9.86428 8.81011ZM10.4843 9.11967C10.4843 9.20575 10.5539 9.27362 10.6385 9.27362C10.7247 9.27362 10.7943 9.2041 10.7943 9.11967C10.7943 9.03359 10.7247 8.96572 10.6385 8.96572C10.5539 8.96572 10.4843 9.03525 10.4843 9.11967ZM11.0015 8.60484C11.0015 8.69092 11.0712 8.75879 11.1557 8.75879C11.2419 8.75879 11.3115 8.68926 11.3115 8.60484C11.3115 8.51876 11.2419 8.45088 11.1557 8.45088C11.0695 8.44923 11.0015 8.51876 11.0015 8.60484ZM11.7243 8.2423C11.7243 8.32838 11.794 8.39791 11.8785 8.39626C11.9647 8.39626 12.0343 8.32673 12.0343 8.2423C12.0343 8.15622 11.9647 8.08669 11.8785 8.08669C11.794 8.08835 11.7243 8.15788 11.7243 8.2423ZM11.8271 8.96572C11.8271 9.0518 11.8968 9.11967 11.9813 9.11967C12.0675 9.11967 12.1371 9.05014 12.1371 8.96572C12.1371 8.87964 12.0675 8.81176 11.9813 8.81176C11.8968 8.81011 11.8271 8.87964 11.8271 8.96572ZM12.5516 8.50055C12.5516 8.58663 12.6212 8.6545 12.7058 8.6545C12.792 8.6545 12.8616 8.58497 12.8616 8.50055C12.8616 8.41446 12.792 8.34659 12.7074 8.34659C12.6196 8.34659 12.5516 8.41612 12.5516 8.50055ZM13.4816 8.44923C13.4816 8.53531 13.5512 8.60318 13.6375 8.60318C13.7237 8.60318 13.7916 8.53365 13.7916 8.44923C13.7916 8.36315 13.722 8.29527 13.6375 8.29527C13.5496 8.29527 13.4816 8.3648 13.4816 8.44923ZM13.1716 9.06835C13.1716 9.15443 13.2412 9.22231 13.3274 9.22231C13.4136 9.22231 13.4816 9.15278 13.4816 9.06835C13.4816 8.98227 13.412 8.91274 13.3274 8.91274C13.2396 8.9144 13.1716 8.98393 13.1716 9.06835ZM13.5844 9.48221C13.5844 9.56829 13.654 9.63782 13.7402 9.63782C13.8264 9.63782 13.8961 9.56829 13.8961 9.48221C13.8961 9.39612 13.8264 9.32825 13.7402 9.32825C13.654 9.3266 13.5844 9.39612 13.5844 9.48221ZM14.0486 9.06835C14.0486 9.15443 14.1182 9.22231 14.2044 9.22231C14.2906 9.22231 14.3603 9.15278 14.3603 9.06835C14.3603 8.98227 14.2906 8.91274 14.2044 8.91274C14.1182 8.9144 14.0486 8.98393 14.0486 9.06835ZM14.8244 9.48221C14.8244 9.56829 14.8941 9.63782 14.9803 9.63782C15.0665 9.63782 15.1345 9.56829 15.1345 9.48221C15.1345 9.39612 15.0648 9.32825 14.9803 9.32825C14.8941 9.3266 14.8244 9.39612 14.8244 9.48221Z" fill="#FBE116"/>
</svg>
