<svg width="120" height="120" viewBox="0 0 120 120" fill="none" xmlns="http://www.w3.org/2000/svg">
<g opacity="0.23">
<path d="M48.75 34.995H41.25V19.995C41.2501 19.3776 41.4027 18.7698 41.6941 18.2255C41.9855 17.6812 42.4068 17.2173 42.9206 16.875L59.7956 5.625L63.9544 11.865L48.75 22.0013V34.995Z" fill="#F9E109"/>
<path d="M63.9563 11.8687L48.75 21.9937V34.9875H41.25V19.9875C41.2502 19.3713 41.4026 18.7648 41.6937 18.2218C41.9848 17.6788 42.4057 17.2161 42.9187 16.875L44.8125 15.6C46.3225 16.0987 47.9295 16.2313 49.5008 15.9868C51.0722 15.7423 52.5629 15.1277 53.85 14.1937L61.7063 8.47498L63.9563 11.8687Z" fill="#FCBC04"/>
<path d="M65.625 114.375H24.375L16.875 48.75H73.125L65.625 114.375Z" fill="#F8664F"/>
<path d="M20.625 41.25H69.375C70.3696 41.25 71.3234 41.6451 72.0267 42.3484C72.7299 43.0516 73.125 44.0054 73.125 45V48.75H16.875V45C16.875 44.0054 17.2701 43.0516 17.9734 42.3484C18.6766 41.6451 19.6304 41.25 20.625 41.25Z" fill="#84D2F4"/>
<path d="M30 33.75H60C60.9946 33.75 61.9484 34.1451 62.6517 34.8484C63.3549 35.5516 63.75 36.5054 63.75 37.5V41.25H26.25V37.5C26.25 36.5054 26.6451 35.5516 27.3484 34.8484C28.0516 34.1451 29.0054 33.75 30 33.75Z" fill="#84D2F4"/>
<path d="M72.4875 54.375H30C40.809 65.183 55.1281 71.7672 70.3687 72.9375L65.625 114.375H24.375L16.875 48.75H73.125L72.4875 54.375Z" fill="#CC5144"/>
<path d="M73.125 45V48.75H16.875V45C16.878 44.0064 17.274 43.0542 17.9766 42.3516C18.6792 41.649 19.6314 41.253 20.625 41.25C20.628 42.2436 21.024 43.1958 21.7266 43.8984C22.4292 44.601 23.3814 44.997 24.375 45H73.125Z" fill="#57B7EB"/>
<path d="M63.75 37.5V41.25H26.25V37.5C26.253 36.5064 26.649 35.5542 27.3516 34.8516C28.0542 34.149 29.0064 33.753 30 33.75C30.003 34.7436 30.399 35.6958 31.1016 36.3984C31.8042 37.101 32.7564 37.497 33.75 37.5H63.75Z" fill="#57B7EB"/>
<path d="M84.375 43.125L80.625 90L78.75 110.625L88.125 112.5L93.75 45L88.125 42L84.375 43.125Z" fill="#E59730"/>
<path d="M73.125 52.5L76.875 97.5H88.125L84.375 50.625L78.75 45L73.125 52.5Z" fill="#FCBC04"/>
<path d="M88.125 97.5H76.875L73.125 52.5L75.3375 49.5562L78.75 76.875H80.625L82.6688 64.95L84.375 63.75L85.5188 64.8937L88.125 97.5Z" fill="#E59730"/>
<path d="M69.375 58.125L63.8194 56.2162L61.875 61.875L71.25 91.875L80.0006 88.125L69.375 58.125Z" fill="#F9E109"/>
<path d="M80.0062 88.125L71.25 91.875L61.875 61.875L63.7875 56.3437L67.2187 66.6562C69.2205 72.6765 72.9029 77.9984 77.8312 81.9937L80.0062 88.125Z" fill="#FCBC04"/>
<path d="M103.125 45L95.4768 80.625H103.125L108.75 54.375L103.125 45Z" fill="#F9E109"/>
<path d="M102.84 62.4844L105.84 49.5131L103.125 45L95.4768 80.625H103.125L105.681 68.7019C104.59 68.1213 103.721 67.1979 103.207 66.0741C102.694 64.9504 102.565 63.6888 102.84 62.4844Z" fill="#FCBC04"/>
<path d="M50.625 56.25L63.75 91.875L71.25 90L58.125 56.25H50.625Z" fill="#F9E109"/>
<path d="M50.625 56.25L63.75 91.875L67.5 90.9375L54.1087 56.25H50.625Z" fill="#FCBC04"/>
<path d="M91.875 50.625L86.25 95.625L93.75 93.75L101.25 54.375L91.875 50.625Z" fill="#F9E109"/>
<path d="M96.975 76.8188L93.75 93.75L86.25 95.625L91.875 50.625L95.5125 52.0875L94.0125 73.1437C93.9541 74.0165 94.2264 74.8793 94.7754 75.5603C95.3244 76.2413 96.1097 76.6906 96.975 76.8188Z" fill="#FCBC04"/>
<path d="M90 97.5H82.5L84.375 63.75L91.875 65.625L90 97.5Z" fill="#F9E109"/>
<path d="M87.6225 79.8131L88.0462 64.6688L84.375 63.75L82.5 97.5H90L90.7369 84.9862C89.7797 84.5092 88.9783 83.7692 88.4267 82.853C87.8751 81.9368 87.5961 80.8823 87.6225 79.8131Z" fill="#FCBC04"/>
<path d="M99.375 73.125C99.375 80.3737 91.8206 86.25 82.5 86.25C73.1794 86.25 65.625 80.3737 65.625 73.125H56.25L61.875 114.375H103.125L108.75 73.125H99.375Z" fill="#84D2F4"/>
<path d="M104.156 106.875L103.125 114.375H61.875L56.25 73.125H65.625C65.6577 74.7117 66.0195 76.2742 66.6876 77.7138C67.3557 79.1533 68.3155 80.4383 69.5062 81.4875C70.6034 88.5611 74.195 95.0087 79.6318 99.6649C85.0686 104.321 91.9919 106.879 99.15 106.875H104.156Z" fill="#57B7EB"/>
<path d="M82.5 106.875C85.6066 106.875 88.125 104.357 88.125 101.25C88.125 98.1434 85.6066 95.625 82.5 95.625C79.3934 95.625 76.875 98.1434 76.875 101.25C76.875 104.357 79.3934 106.875 82.5 106.875Z" fill="#F9E109"/>
<path d="M87.1688 104.381C86.4967 105.381 85.5212 106.139 84.386 106.543C83.2508 106.947 82.0158 106.976 80.863 106.625C79.7102 106.275 78.7005 105.563 77.9825 104.595C77.2646 103.628 76.8763 102.455 76.875 101.25C76.8713 100.102 77.2252 98.9814 77.8875 98.0438C80.553 100.724 83.7024 102.874 87.1688 104.381Z" fill="#FCBC04"/>
<path d="M56.25 95.625H22.5C20.5109 95.625 18.6032 94.8348 17.1967 93.4283C15.7902 92.0218 15 90.1141 15 88.125C15 86.1359 15.7902 84.2282 17.1967 82.8217C18.6032 81.4152 20.5109 80.625 22.5 80.625H56.25C58.2391 80.625 60.1468 81.4152 61.5533 82.8217C62.9598 84.2282 63.75 86.1359 63.75 88.125C63.75 90.1141 62.9598 92.0218 61.5533 93.4283C60.1468 94.8348 58.2391 95.625 56.25 95.625Z" fill="#F89C8D"/>
<path d="M60 91.875C61.0617 91.8741 62.1106 91.6438 63.075 91.2C62.713 92.0323 62.1978 92.7892 61.5563 93.4313C60.1456 94.8331 58.2387 95.6215 56.25 95.625H22.5C21.0158 95.6262 19.5646 95.1869 18.3302 94.3629C17.0957 93.5389 16.1335 92.3671 15.5653 90.9959C14.9972 89.6248 14.8487 88.1158 15.1385 86.6602C15.4284 85.2046 16.1437 83.8677 17.1938 82.8187C17.8358 82.1772 18.5927 81.6621 19.425 81.3C20.3894 80.8562 21.4384 80.6259 22.5 80.625H56.25C58.0731 80.6276 59.8327 81.2942 61.2 82.5C62.1336 83.3064 62.8439 84.3396 63.2625 85.5C62.9193 86.1192 62.4166 86.6352 61.8066 86.9946C61.1967 87.3539 60.5017 87.5435 59.7938 87.5438C59.1764 87.5436 58.5671 87.4026 58.0125 87.1313C57.4664 86.8539 56.8625 86.7094 56.25 86.7094C55.6375 86.7094 55.0336 86.8539 54.4875 87.1313L50.5125 89.1188C49.9664 89.3961 49.3625 89.5406 48.75 89.5406C48.1375 89.5406 47.5336 89.3961 46.9875 89.1188L43.0125 87.1313C42.4664 86.8539 41.8625 86.7094 41.25 86.7094C40.6375 86.7094 40.0336 86.8539 39.4875 87.1313L35.5125 89.1188C34.9664 89.3961 34.3625 89.5406 33.75 89.5406C33.1375 89.5406 32.5336 89.3961 31.9875 89.1188L28.0125 87.1313C27.4664 86.8539 26.8625 86.7094 26.25 86.7094C25.6375 86.7094 25.0336 86.8539 24.4875 87.1313L21.4688 88.65C21.1203 88.8171 20.756 88.949 20.3813 89.0438C21.0821 89.9283 21.9742 90.6426 22.9907 91.133C24.0071 91.6234 25.1215 91.8771 26.25 91.875H60Z" fill="#F8664F"/>
<path d="M11.25 103.125H67.5V106.875C67.5 108.864 66.7098 110.772 65.3033 112.178C63.8968 113.585 61.9891 114.375 60 114.375H18.75C16.7609 114.375 14.8532 113.585 13.4467 112.178C12.0402 110.772 11.25 108.864 11.25 106.875V103.125Z" fill="#FCBC04"/>
<path d="M44.625 103.125L43.125 105L41.625 103.125H44.625Z" fill="#E59730"/>
<path d="M44.625 103.125L43.125 105L41.625 103.125H44.625Z" fill="#E59730"/>
<path d="M60 103.125H18.75C17.7554 103.125 16.8016 102.73 16.0984 102.027C15.3951 101.323 15 100.37 15 99.375C15 98.3804 15.3951 97.4266 16.0984 96.7233C16.8016 96.0201 17.7554 95.625 18.75 95.625H60C60.9946 95.625 61.9484 96.0201 62.6517 96.7233C63.3549 97.4266 63.75 98.3804 63.75 99.375C63.75 100.37 63.3549 101.323 62.6517 102.027C61.9484 102.73 60.9946 103.125 60 103.125Z" fill="#CC5144"/>
<path d="M45 105L37.5 95.625H52.5L45 105Z" fill="#F7F754"/>
<path d="M44.3569 97.635L42.75 95.625H37.5L45 105L49.2469 99.6919C48.3251 99.7821 47.3953 99.6413 46.5416 99.2822C45.6879 98.9231 44.937 98.357 44.3569 97.635Z" fill="#F9E109"/>
<path d="M13.125 80.625C13.1247 81.7518 13.4384 82.8564 14.0309 83.8149C14.6234 84.7734 15.4713 85.5478 16.4794 86.0513L17.9119 86.7675C18.7541 87.1892 19.6831 87.4088 20.625 87.4088C21.5669 87.4088 22.4959 87.1892 23.3381 86.7675L26.355 85.2675C26.9046 84.9929 27.5106 84.8499 28.125 84.8499C28.7394 84.8499 29.3454 84.9929 29.895 85.2675L33.855 87.2475C34.4046 87.5221 35.0106 87.6651 35.625 87.6651C36.2394 87.6651 36.8454 87.5221 37.395 87.2475L41.355 85.2675C41.9046 84.9929 42.5106 84.8499 43.125 84.8499C43.7394 84.8499 44.3454 84.9929 44.895 85.2675L48.855 87.2475C49.4046 87.5221 50.0106 87.6651 50.625 87.6651C51.2394 87.6651 51.8454 87.5221 52.395 87.2475L56.355 85.2675C56.9046 84.9929 57.5106 84.8499 58.125 84.8499C58.7394 84.8499 59.3454 84.9929 59.895 85.2675C60.4992 85.5694 61.1704 85.7117 61.8451 85.681C62.5197 85.6503 63.1753 85.4475 63.7495 85.092C64.3238 84.7365 64.7975 84.2401 65.1258 83.6499C65.454 83.0597 65.6259 82.3953 65.625 81.72V80.625H13.125Z" fill="#C4F236"/>
<path d="M48.75 61.875H30C25.0272 61.875 20.2581 63.8504 16.7417 67.3667C13.2254 70.8831 11.25 75.6522 11.25 80.625H67.5C67.5 75.6522 65.5246 70.8831 62.0083 67.3667C58.4919 63.8504 53.7228 61.875 48.75 61.875Z" fill="#FCBC04"/>
<path d="M67.5 80.625H11.25C11.2517 76.5294 12.5944 72.5469 15.0729 69.2864C17.5513 66.0258 21.0292 63.6664 24.975 62.5687C25.9495 66.1386 28.0704 69.2892 31.0111 71.5355C33.9519 73.7817 37.5495 74.999 41.25 75H66.6375C67.2122 76.8196 67.5031 78.7168 67.5 80.625Z" fill="#E59730"/>
<path d="M67.5 106.875C67.5 108.864 66.7098 110.772 65.3033 112.178C63.8968 113.585 61.9891 114.375 60 114.375H18.75C16.7609 114.375 14.8532 113.585 13.4467 112.178C12.0402 110.772 11.25 108.864 11.25 106.875V103.125H15.2438C15.6569 104.735 16.5943 106.162 17.9082 107.181C19.222 108.199 20.8376 108.751 22.5 108.75H61.875C63.9048 108.758 65.881 108.099 67.5 106.875Z" fill="#E59730"/>
<path d="M65.625 80.625V81.7125C65.6331 81.9782 65.6015 82.2436 65.5313 82.5H16.3125C16.8547 83.2076 17.5545 83.7789 18.3562 84.1687L19.7812 84.9C20.6271 85.3162 21.5572 85.5327 22.5 85.5327C23.4427 85.5327 24.3729 85.3162 25.2187 84.9L28.2375 83.3813C28.7836 83.1039 29.3875 82.9594 30 82.9594C30.6125 82.9594 31.2164 83.1039 31.7625 83.3813L35.7375 85.3687C36.2836 85.6461 36.8875 85.7906 37.5 85.7906C38.1125 85.7906 38.7164 85.6461 39.2625 85.3687L43.2375 83.3813C43.7836 83.1039 44.3875 82.9594 45 82.9594C45.6125 82.9594 46.2164 83.1039 46.7625 83.3813L50.7375 85.3687C51.2836 85.6461 51.8875 85.7906 52.5 85.7906C53.1125 85.7906 53.7164 85.6461 54.2625 85.3687L58.2375 83.3813C58.7836 83.1039 59.3875 82.9594 60 82.9594C60.6125 82.9594 61.2164 83.1039 61.7625 83.3813C62.3033 83.652 62.8993 83.7946 63.5041 83.7978C64.1089 83.8011 64.7063 83.6649 65.25 83.4C64.9282 84.0777 64.421 84.6504 63.7873 85.0519C63.1535 85.4534 62.419 85.6673 61.6687 85.6687C61.0513 85.6686 60.4421 85.5275 59.8875 85.2563C59.3414 84.9789 58.7375 84.8344 58.125 84.8344C57.5125 84.8344 56.9086 84.9789 56.3625 85.2563L52.3875 87.2437C51.8414 87.5211 51.2375 87.6656 50.625 87.6656C50.0125 87.6656 49.4086 87.5211 48.8625 87.2437L44.8875 85.2563C44.3414 84.9789 43.7375 84.8344 43.125 84.8344C42.5125 84.8344 41.9086 84.9789 41.3625 85.2563L37.3875 87.2437C36.8414 87.5211 36.2375 87.6656 35.625 87.6656C35.0125 87.6656 34.4086 87.5211 33.8625 87.2437L29.8875 85.2563C29.3414 84.9789 28.7375 84.8344 28.125 84.8344C27.5125 84.8344 26.9086 84.9789 26.3625 85.2563L23.3437 86.775C22.4979 87.1912 21.5677 87.4077 20.625 87.4077C19.6822 87.4077 18.7521 87.1912 17.9062 86.775L16.4812 86.0437C15.4706 85.5453 14.6203 84.7731 14.0269 83.8151C13.4336 82.8571 13.1211 81.7518 13.125 80.625H65.625Z" fill="#A1D51C"/>
<path d="M43.125 73.125C44.1605 73.125 45 72.2855 45 71.25C45 70.2145 44.1605 69.375 43.125 69.375C42.0895 69.375 41.25 70.2145 41.25 71.25C41.25 72.2855 42.0895 73.125 43.125 73.125Z" fill="#B0772B"/>
<path d="M35.625 71.25C36.6605 71.25 37.5 70.4105 37.5 69.375C37.5 68.3395 36.6605 67.5 35.625 67.5C34.5895 67.5 33.75 68.3395 33.75 69.375C33.75 70.4105 34.5895 71.25 35.625 71.25Z" fill="#B0772B"/>
<path d="M30 75C31.0355 75 31.875 74.1605 31.875 73.125C31.875 72.0895 31.0355 71.25 30 71.25C28.9645 71.25 28.125 72.0895 28.125 73.125C28.125 74.1605 28.9645 75 30 75Z" fill="#B0772B"/>
<path d="M58.125 75C59.1605 75 60 74.1605 60 73.125C60 72.0895 59.1605 71.25 58.125 71.25C57.0895 71.25 56.25 72.0895 56.25 73.125C56.25 74.1605 57.0895 75 58.125 75Z" fill="#B0772B"/>
<path d="M22.5 73.125C23.5355 73.125 24.375 72.2855 24.375 71.25C24.375 70.2145 23.5355 69.375 22.5 69.375C21.4645 69.375 20.625 70.2145 20.625 71.25C20.625 72.2855 21.4645 73.125 22.5 73.125Z" fill="#B0772B"/>
<path d="M50.625 71.25C51.6605 71.25 52.5 70.4105 52.5 69.375C52.5 68.3395 51.6605 67.5 50.625 67.5C49.5895 67.5 48.75 68.3395 48.75 69.375C48.75 70.4105 49.5895 71.25 50.625 71.25Z" fill="#B0772B"/>
</g>
</svg>
